PathFileType	4	(X/Y/Z)	 3.0Hz3min.trc
DataRate	CameraRate	NumFrames	NumMarkers	Units	OrigDataRate	OrigDataStartFrame	OrigNumFrames
200	200	8	39	m	200	749	998
Frame#	Time	C7			LSH			RSH			MAN			RASI			LASI			HIPR			HIPL			RPSI			LPSI			COX			RTHI1			RTHI2			RTHI3			RTHI4			RLKN			RMKN			RSHA1			RSHA2			RSHA3			RSHA4			RHEEL			RMET5			RMET1			RTOE			LTHI1			LTHI2			LTHI3			LTHI4			LLKN			LMKN			LSHA1			LSHA2			LSHA3			LSHA4			LHEEL			LMET5			LMET1			LTOE			
		X1	Y1	Z1	X2	Y2	Z2	X3	Y3	Z3	X4	Y4	Z4	X5	Y5	Z5	X6	Y6	Z6	X7	Y7	Z7	X8	Y8	Z8	X9	Y9	Z9	X10	Y10	Z10	X11	Y11	Z11	X12	Y12	Z12	X13	Y13	Z13	X14	Y14	Z14	X15	Y15	Z15	X16	Y16	Z16	X17	Y17	Z17	X18	Y18	Z18	X19	Y19	Z19	X20	Y20	Z20	X21	Y21	Z21	X22	Y22	Z22	X23	Y23	Z23	X24	Y24	Z24	X25	Y25	Z25	X26	Y26	Z26	X27	Y27	Z27	X28	Y28	Z28	X29	Y29	Z29	X30	Y30	Z30	X31	Y31	Z31	X32	Y32	Z32	X33	Y33	Z33	X34	Y34	Z34	X35	Y35	Z35	X36	Y36	Z36	X37	Y37	Z37	X38	Y38	Z38	X39	Y39	Z39	
749	3.7450	-0.271282	1.538161	-0.508024	-0.221945	1.526659	-0.688074	-0.226917	1.519515	-0.322798	-0.124416	1.477939	-0.513456	-0.144020	1.018306	-0.398851	-0.145661	1.017887	-0.637166	-0.219573	1.093713	-0.350265	-0.212708	1.086438	-0.683066	-0.314707	1.087586	-0.473421	-0.315134	1.090941	-0.561922	-0.314101	1.091912	-0.514722	-0.241529	0.836249	-0.326462	-0.234061	0.777138	-0.322368	-0.169261	0.783517	-0.317847	-0.169438	0.845080	-0.323230	-0.231562	0.510200	-0.350451	-0.216097	0.498387	-0.470273	-0.308785	0.395480	-0.325861	-0.322415	0.355908	-0.334397	-0.262906	0.343498	-0.335622	-0.253413	0.382275	-0.329730	-0.396256	0.129872	-0.411353	-0.255318	0.043027	-0.346681	-0.199375	0.049986	-0.412222	-0.172110	0.037285	-0.406666	-0.249074	0.835501	-0.707938	-0.234574	0.775912	-0.715467	-0.171052	0.786037	-0.721166	-0.176599	0.845828	-0.714818	-0.240610	0.512492	-0.687167	-0.210392	0.507328	-0.566461	-0.316163	0.383472	-0.701018	-0.328983	0.345760	-0.693253	-0.267900	0.331046	-0.699998	-0.263389	0.374326	-0.707557	-0.397526	0.121054	-0.620920	-0.252876	0.040222	-0.696313	-0.196470	0.052482	-0.633968	-0.172609	0.038503	-0.642579	
750	3.7500	-0.271411	1.540742	-0.507931	-0.221971	1.529653	-0.687796	-0.226932	1.522312	-0.322864	-0.124769	1.480908	-0.513392	-0.144222	1.020958	-0.398878	-0.145916	1.020698	-0.637452	-0.219753	1.096852	-0.350741	-0.212765	1.089799	-0.683016	-0.314810	1.090694	-0.473655	-0.315255	1.094085	-0.562173	-0.314216	1.095119	-0.514945	-0.242291	0.838940	-0.326935	-0.234882	0.779810	-0.322844	-0.170081	0.786145	-0.317917	-0.170176	0.847684	-0.323254	-0.231990	0.512687	-0.350654	-0.216547	0.500810	-0.470531	-0.308627	0.397631	-0.325901	-0.322056	0.357946	-0.334252	-0.262483	0.345882	-0.335568	-0.253184	0.384695	-0.329806	-0.395334	0.131865	-0.411246	-0.254746	0.044614	-0.346814	-0.198960	0.051224	-0.411366	-0.171879	0.038619	-0.405361	-0.249825	0.838523	-0.707634	-0.235341	0.778931	-0.715294	-0.171866	0.789101	-0.721482	-0.177420	0.848913	-0.715074	-0.240482	0.514993	-0.687348	-0.210323	0.509798	-0.566575	-0.315581	0.385670	-0.701309	-0.328245	0.347875	-0.693591	-0.267088	0.333427	-0.700280	-0.262740	0.376726	-0.707777	-0.396467	0.123303	-0.620563	-0.252996	0.041389	-0.696331	-0.195902	0.053748	-0.635815	-0.172374	0.039486	-0.644826	
751	3.7550	-0.271523	1.543078	-0.507843	-0.221952	1.532379	-0.687550	-0.226921	1.524855	-0.322922	-0.125106	1.483560	-0.513340	-0.144442	1.023403	-0.398900	-0.146198	1.023293	-0.637751	-0.220008	1.099708	-0.351196	-0.212906	1.092932	-0.682928	-0.314961	1.093570	-0.473874	-0.315432	1.097003	-0.562405	-0.314368	1.098104	-0.515152	-0.242891	0.841370	-0.327325	-0.235514	0.782225	-0.323256	-0.170709	0.788526	-0.318099	-0.170760	0.850072	-0.323410	-0.232237	0.514882	-0.350872	-0.216914	0.502988	-0.470802	-0.308398	0.399518	-0.325968	-0.321652	0.359759	-0.334154	-0.262040	0.347979	-0.335599	-0.252883	0.386798	-0.329943	-0.394572	0.133609	-0.411272	-0.254286	0.046323	-0.346763	-0.198548	0.052712	-0.410540	-0.171582	0.040292	-0.404192	-0.250438	0.841266	-0.707406	-0.235927	0.781683	-0.715177	-0.172492	0.791926	-0.721703	-0.178094	0.851753	-0.715228	-0.240126	0.517202	-0.687501	-0.210046	0.512019	-0.566686	-0.314909	0.387635	-0.701549	-0.327460	0.349780	-0.693861	-0.266252	0.335529	-0.700467	-0.262013	0.378832	-0.707924	-0.395557	0.125350	-0.620097	-0.253244	0.042915	-0.696685	-0.195358	0.055196	-0.637687	-0.172108	0.040753	-0.647108	
752	3.7600	-0.271619	1.545152	-0.507760	-0.221899	1.534822	-0.687329	-0.226872	1.527137	-0.322974	-0.125432	1.485885	-0.513312	-0.144678	1.025628	-0.398923	-0.146499	1.025655	-0.638054	-0.220328	1.102256	-0.351616	-0.213099	1.095796	-0.682845	-0.315155	1.096196	-0.474076	-0.315660	1.099679	-0.562611	-0.314553	1.100843	-0.515340	-0.243312	0.843524	-0.327620	-0.235940	0.784374	-0.323573	-0.171137	0.790658	-0.318396	-0.171177	0.852230	-0.323694	-0.232319	0.516780	-0.351097	-0.217198	0.504902	-0.471070	-0.308120	0.401152	-0.326039	-0.321245	0.361371	-0.334123	-0.261618	0.349790	-0.335706	-0.252567	0.388637	-0.330144	-0.393977	0.135108	-0.411437	-0.253924	0.048138	-0.346548	-0.198160	0.054413	-0.409774	-0.171193	0.042267	-0.403193	-0.250885	0.843704	-0.707280	-0.236296	0.784140	-0.715145	-0.172889	0.794499	-0.721831	-0.178576	0.854314	-0.715287	-0.239579	0.519118	-0.687628	-0.209571	0.513978	-0.566805	-0.314199	0.389379	-0.701722	-0.326687	0.351487	-0.694052	-0.265443	0.337345	-0.700566	-0.261262	0.380660	-0.708007	-0.394810	0.127162	-0.619529	-0.253541	0.044753	-0.697377	-0.194873	0.056830	-0.639578	-0.171816	0.042302	-0.649360	
753	3.7650	-0.271701	1.546959	-0.507682	-0.221818	1.536973	-0.687135	-0.226790	1.529142	-0.323018	-0.125744	1.487875	-0.513312	-0.144921	1.027618	-0.398957	-0.146813	1.027768	-0.638353	-0.220695	1.104477	-0.351989	-0.213362	1.098379	-0.682769	-0.315374	1.098551	-0.474259	-0.315932	1.102080	-0.562794	-0.314768	1.103298	-0.515511	-0.243550	0.845385	-0.327834	-0.236162	0.786261	-0.323792	-0.171356	0.792541	-0.318802	-0.171414	0.854117	-0.324072	-0.232264	0.518381	-0.351325	-0.217391	0.506544	-0.471321	-0.307844	0.402550	-0.326125	-0.320877	0.362790	-0.334141	-0.261240	0.351327	-0.335878	-0.252266	0.390140	-0.330362	-0.393544	0.136377	-0.411708	-0.253599	0.050046	-0.346214	-0.197813	0.056239	-0.409157	-0.170765	0.044375	-0.402378	-0.251134	0.845808	-0.707275	-0.236417	0.786288	-0.715208	-0.173031	0.796783	-0.721876	-0.178840	0.856574	-0.715264	-0.238879	0.520749	-0.687738	-0.208909	0.515670	-0.566944	-0.313500	0.390912	-0.701820	-0.325960	0.353005	-0.694151	-0.264711	0.338900	-0.700600	-0.260537	0.382212	-0.708041	-0.394208	0.128712	-0.618889	-0.253739	0.046924	-0.698388	-0.194441	0.058640	-0.641473	-0.171501	0.044072	-0.651600	
754	3.7700	-0.271771	1.548493	-0.507611	-0.221715	1.538825	-0.686968	-0.226684	1.530855	-0.323051	-0.126035	1.489537	-0.513340	-0.145170	1.029360	-0.399009	-0.147140	1.029624	-0.638641	-0.221095	1.106358	-0.352308	-0.213674	1.100608	-0.682715	-0.315620	1.100617	-0.474421	-0.316242	1.104191	-0.562945	-0.315011	1.105451	-0.515661	-0.243613	0.846957	-0.327948	-0.236185	0.787857	-0.323931	-0.171374	0.794158	-0.319297	-0.171479	0.855727	-0.324537	-0.232105	0.519695	-0.351550	-0.217494	0.507916	-0.471547	-0.307592	0.403740	-0.326235	-0.320583	0.364008	-0.334219	-0.260954	0.352605	-0.336118	-0.251998	0.391396	-0.330597	-0.393239	0.137422	-0.412060	-0.253338	0.051954	-0.345819	-0.197496	0.058043	-0.408557	-0.170323	0.046467	-0.401610	-0.251170	0.847567	-0.707397	-0.236277	0.788108	-0.715366	-0.172906	0.798768	-0.721843	-0.178874	0.858521	-0.715167	-0.238083	0.522116	-0.687840	-0.208114	0.517105	-0.567107	-0.312844	0.392239	-0.701792	-0.325332	0.354355	-0.694156	-0.264097	0.340209	-0.700595	-0.259896	0.383524	-0.708042	-0.393728	0.130012	-0.618248	-0.253918	0.049330	-0.699640	-0.194078	0.060497	-0.643372	-0.171181	0.045943	-0.653790	
755	3.7750	-0.271829	1.549759	-0.507548	-0.221597	1.540372	-0.686831	-0.226557	1.532268	-0.323068	-0.126297	1.490877	-0.513390	-0.145417	1.030838	-0.399088	-0.147472	1.031215	-0.638905	-0.221512	1.107891	-0.352572	-0.214049	1.102492	-0.682693	-0.315889	1.102376	-0.474562	-0.316580	1.105990	-0.563068	-0.315281	1.107287	-0.515787	-0.243511	0.848230	-0.327972	-0.236020	0.789153	-0.323996	-0.171207	0.795495	-0.319866	-0.171389	0.857088	-0.325090	-0.231884	0.520750	-0.351768	-0.217507	0.509030	-0.471743	-0.307388	0.404746	-0.326380	-0.320371	0.365050	-0.334350	-0.260760	0.353650	-0.336401	-0.251797	0.392419	-0.330841	-0.393037	0.138265	-0.412467	-0.253145	0.053769	-0.345432	-0.197128	0.059783	-0.407997	-0.169901	0.048432	-0.400848	-0.250986	0.848977	-0.707635	-0.235876	0.789587	-0.715603	-0.172510	0.800446	-0.721742	-0.178680	0.860149	-0.715014	-0.237241	0.523245	-0.687942	-0.207232	0.518300	-0.567301	-0.312278	0.393397	-0.701682	-0.324809	0.355549	-0.694062	-0.263627	0.341306	-0.700581	-0.259363	0.384621	-0.708033	-0.393343	0.131098	-0.617698	-0.254098	0.051755	-0.700972	-0.193713	0.062365	-0.645198	-0.170858	0.047824	-0.655914	
756	3.7800	-0.271874	1.550764	-0.507495	-0.221470	1.541614	-0.686729	-0.226412	1.533377	-0.323064	-0.126523	1.491908	-0.513457	-0.145659	1.032040	-0.399200	-0.147804	1.032540	-0.639140	-0.221936	1.109068	-0.352784	-0.214480	1.104005	-0.682697	-0.316177	1.103812	-0.474679	-0.316934	1.107453	-0.563166	-0.315574	1.108781	-0.515890	-0.243264	0.849205	-0.327920	-0.235687	0.790157	-0.323993	-0.170877	0.796563	-0.320496	-0.171153	0.858160	-0.325690	-0.231630	0.521572	-0.351971	-0.217446	0.509897	-0.471914	-0.307244	0.405590	-0.326558	-0.320235	0.365934	-0.334533	-0.260653	0.354498	-0.336703	-0.251686	0.393265	-0.331102	-0.392911	0.138914	-0.412903	-0.252966	0.055363	-0.345105	-0.196780	0.061380	-0.407476	-0.169487	0.050221	-0.400139	-0.250594	0.850039	-0.707976	-0.235226	0.790722	-0.715906	-0.171866	0.801815	-0.721578	-0.178271	0.861452	-0.714822	-0.236405	0.524162	-0.688057	-0.206296	0.519268	-0.567528	-0.311827	0.394407	-0.701502	-0.324420	0.356605	-0.693887	-0.263301	0.342225	-0.700588	-0.258963	0.385542	-0.708038	-0.393029	0.131939	-0.617233	-0.254145	0.054037	-0.702229	-0.193390	0.064162	-0.646939	-0.170528	0.049641	-0.657916	
